<svg xmlns="http://www.w3.org/2000/svg" width="800" height="450" viewBox="0 0 800 450"><rect width="100%" height="100%" fill="#1e8c94"/><path fill="#FFFFFF" d="M179.285 206.005h5.09v31.09h-2.97q-.68 0-1.15-.23-.46-.22-.89-.76l-16.23-20.73q.13 1.42.13 2.63v19.09h-5.1v-31.09h3.03q.37 0 .64.03.27.04.47.13.21.1.4.28t.43.49l16.3 20.81q-.07-.76-.11-1.49t-.04-1.35zm15.37 17.52h10.02q0-1.03-.29-1.94-.29-.92-.87-1.6-.58-.69-1.48-1.09-.89-.4-2.07-.4-2.3 0-3.62 1.31-1.33 1.32-1.69 3.72m13.54 3.21h-13.65q.13 1.7.6 2.93.48 1.24 1.25 2.04.77.81 1.84 1.21 1.06.4 2.35.4t2.23-.3q.93-.31 1.63-.67.7-.37 1.23-.67.52-.3 1.02-.3.67 0 .99.5l1.52 1.93q-.88 1.03-1.97 1.73-1.1.7-2.29 1.12-1.2.42-2.43.59-1.24.17-2.4.17-2.3 0-4.28-.76t-3.44-2.26q-1.46-1.49-2.3-3.7-.84-2.2-.84-5.1 0-2.26.73-4.25t2.1-3.46q1.36-1.47 3.33-2.33t4.44-.86q2.09 0 3.85.66 1.76.67 3.03 1.95t1.99 3.14.72 4.24q0 1.21-.26 1.63t-.99.42m32.68-11.7h4.05l-7.01 22.06h-4.26q-.73 0-1.01-.95l-3.96-12.75q-.19-.64-.35-1.27-.16-.64-.27-1.28-.13.64-.29 1.3-.16.65-.36 1.3l-4.02 12.7q-.25.95-1.14.95h-4.08l-6.99-22.06h4.24q.58 0 .99.28t.53.71l3.16 11.78q.24.97.42 1.89.19.93.32 1.85.23-.92.5-1.85.27-.92.57-1.89l3.66-11.82q.12-.43.5-.71t.91-.28h2.35q.56 0 .95.28.4.28.53.71l3.55 11.82q.28.97.53 1.9.24.94.48 1.86.28-1.82.8-3.76l3.24-11.78q.15-.43.54-.71t.92-.28m24.13 6.6h4.32q1.59 0 2.77-.4 1.18-.39 1.97-1.14.78-.74 1.17-1.8.39-1.07.39-2.38 0-1.24-.39-2.26-.39-1.01-1.16-1.72-.77-.7-1.96-1.08-1.18-.38-2.79-.38h-4.32zm-5.79-15.63h10.11q3.12 0 5.39.73 2.28.73 3.77 2.04 1.48 1.32 2.2 3.14.72 1.83.72 4 0 2.26-.75 4.14t-2.26 3.24q-1.5 1.35-3.77 2.1-2.27.76-5.3.76h-4.32v10.94h-5.79zm29.97 17.52h10.02q0-1.03-.29-1.94-.29-.92-.87-1.6-.58-.69-1.47-1.09t-2.08-.4q-2.3 0-3.62 1.31-1.32 1.32-1.69 3.72m13.55 3.21h-13.65q.13 1.7.6 2.93.47 1.24 1.25 2.04.77.81 1.83 1.21 1.07.4 2.36.4t2.22-.3q.94-.31 1.64-.67.7-.37 1.22-.67.53-.3 1.02-.3.67 0 .99.5l1.53 1.93q-.88 1.03-1.98 1.73-1.09.7-2.29 1.12-1.19.42-2.43.59-1.23.17-2.39.17-2.31 0-4.28-.76-1.98-.76-3.44-2.26-1.47-1.49-2.3-3.7-.84-2.2-.84-5.1 0-2.26.73-4.25t2.09-3.46q1.37-1.47 3.34-2.33 1.96-.86 4.44-.86 2.08 0 3.85.66 1.76.67 3.03 1.95t1.99 3.14.72 4.24q0 1.21-.26 1.63t-.99.42m9.91-10.37.32 2.5q1.04-1.98 2.45-3.11 1.42-1.13 3.36-1.13 1.52 0 2.45.67l-.34 3.98q-.11.38-.32.54-.2.17-.54.17-.33 0-.96-.11-.64-.11-1.24-.11-.88 0-1.57.26t-1.23.74q-.55.48-.97 1.17t-.79 1.57v13.59h-5.31v-22.06h3.12q.82 0 1.14.29t.43 1.04m26.02 1.06-1.21 1.91q-.21.34-.45.48t-.6.14q-.39 0-.83-.21-.44-.22-1.02-.48-.58-.27-1.32-.49-.74-.21-1.76-.21-1.56 0-2.46.66-.89.67-.89 1.74 0 .71.46 1.2.47.48 1.23.85.76.36 1.73.65t1.97.64q1 .34 1.96.78.97.44 1.73 1.12.77.68 1.23 1.62.46.95.46 2.28 0 1.59-.57 2.94-.57 1.34-1.69 2.32-1.11.98-2.76 1.53-1.64.54-3.79.54-1.14 0-2.23-.2-1.08-.2-2.08-.57t-1.85-.86-1.5-1.08l1.23-2.02q.24-.36.56-.56.32-.19.81-.19.5 0 .94.28t1.02.6q.58.33 1.37.6.78.28 1.99.28.94 0 1.62-.22.68-.23 1.12-.59.44-.37.64-.85.21-.49.21-1 0-.78-.47-1.27-.46-.49-1.22-.86-.77-.37-1.74-.66-.98-.29-2-.63t-2-.81q-.98-.46-1.74-1.17-.77-.71-1.23-1.74t-.46-2.49q0-1.36.54-2.58.53-1.23 1.58-2.14 1.04-.92 2.6-1.46 1.56-.55 3.6-.55 2.28 0 4.15.75t3.12 1.98m9.54 4.06v9.89q.9 1.1 1.97 1.55 1.06.45 2.31.45 1.2 0 2.17-.45t1.65-1.38q.67-.92 1.04-2.33.36-1.41.36-3.32 0-1.94-.31-3.28t-.89-2.18-1.41-1.23-1.88-.39q-1.65 0-2.82.7-1.16.7-2.19 1.97m-.71-5.48.43 2.04q1.36-1.53 3.08-2.47 1.72-.95 4.04-.95 1.8 0 3.3.75 1.49.76 2.58 2.19 1.08 1.43 1.68 3.52.59 2.1.59 4.81 0 2.47-.67 4.58-.67 2.1-1.9 3.65-1.24 1.55-2.99 2.42t-3.92.87q-1.85 0-3.16-.57-1.32-.57-2.35-1.58v9.03h-5.31v-29.26h3.25q1.03 0 1.35.97m24.02 7.52h10.02q0-1.03-.29-1.94-.29-.92-.87-1.6-.58-.69-1.48-1.09-.89-.4-2.07-.4-2.3 0-3.62 1.31-1.33 1.32-1.69 3.72m13.54 3.21h-13.65q.13 1.7.6 2.93.48 1.24 1.25 2.04.77.81 1.84 1.21 1.06.4 2.35.4t2.23-.3q.93-.31 1.63-.67.7-.37 1.23-.67.52-.3 1.02-.3.66 0 .99.5l1.52 1.93q-.88 1.03-1.97 1.73-1.1.7-2.29 1.12-1.2.42-2.43.59-1.24.17-2.4.17-2.3 0-4.28-.76t-3.44-2.26q-1.46-1.49-2.3-3.7-.84-2.2-.84-5.1 0-2.26.73-4.25t2.1-3.46q1.36-1.47 3.33-2.33t4.44-.86q2.09 0 3.85.66 1.76.67 3.03 1.95t1.99 3.14.72 4.24q0 1.21-.26 1.63t-.99.42m22.43-8.97-1.4 1.94q-.24.3-.46.47-.23.17-.66.17-.41 0-.79-.25-.39-.24-.93-.55-.54-.32-1.28-.56-.74-.25-1.84-.25-1.39 0-2.45.5-1.05.51-1.75 1.46-.7.94-1.04 2.29-.35 1.34-.35 3.04 0 1.76.38 3.14.38 1.37 1.09 2.31.71.93 1.72 1.42 1.01.48 2.28.48 1.26 0 2.05-.31.78-.31 1.32-.69t.94-.69q.39-.31.89-.31.64 0 .97.5l1.52 1.93q-.88 1.03-1.91 1.73t-2.14 1.12-2.28.59-2.33.17q-2.04 0-3.85-.76t-3.16-2.23q-1.36-1.46-2.14-3.58-.79-2.11-.79-4.82 0-2.43.7-4.51.7-2.07 2.06-3.59 1.35-1.51 3.35-2.37t4.6-.86q2.47 0 4.33.79 1.86.8 3.35 2.28m10.88 19.67q-2.88 0-4.42-1.62t-1.54-4.48v-12.32h-2.26q-.43 0-.73-.28t-.3-.84v-2.11l3.55-.58 1.12-6.02q.1-.43.41-.66.3-.24.77-.24h2.75v6.94h5.89v3.79h-5.89v11.95q0 1.03.51 1.61.5.59 1.38.59.5 0 .83-.12t.58-.25.44-.25q.2-.12.39-.12.24 0 .39.12t.32.36l1.59 2.58q-1.16.96-2.67 1.46-1.5.49-3.11.49m8.81-22.4h5.33v22.06h-5.33zm6.06-6.43q0 .69-.28 1.29-.27.6-.74 1.06-.46.45-1.08.72-.63.26-1.34.26-.68 0-1.3-.26-.61-.27-1.06-.72-.45-.46-.72-1.06t-.27-1.29q0-.71.27-1.33t.72-1.08q.45-.45 1.06-.72.62-.26 1.3-.26.71 0 1.34.26.62.27 1.08.72.47.46.74 1.08.28.62.28 1.33m20.39 6.43h4.19l-8.75 22.06h-4.82l-8.75-22.06h4.39q.6 0 1 .28t.52.71l4.26 11.78q.35 1.03.6 2.02.26.99.45 1.98.22-.99.48-1.98t.62-2.02l4.34-11.78q.15-.43.54-.71t.93-.28m11.2 8.49h10.02q0-1.03-.29-1.94-.29-.92-.87-1.6-.58-.69-1.48-1.09-.89-.4-2.07-.4-2.3 0-3.62 1.31-1.33 1.32-1.69 3.72m13.54 3.21h-13.65q.13 1.7.6 2.93.48 1.24 1.25 2.04.77.81 1.84 1.21 1.06.4 2.35.4t2.23-.3q.93-.31 1.63-.67.7-.37 1.23-.67.52-.3 1.02-.3.66 0 .99.5l1.52 1.93q-.88 1.03-1.97 1.73-1.1.7-2.29 1.12-1.2.42-2.43.59-1.24.17-2.4.17-2.3 0-4.28-.76t-3.44-2.26q-1.46-1.49-2.3-3.7-.84-2.2-.84-5.1 0-2.26.73-4.25t2.1-3.46q1.36-1.47 3.33-2.33t4.44-.86q2.09 0 3.85.66 1.76.67 3.03 1.95t1.99 3.14.72 4.24q0 1.21-.26 1.63t-.99.42m22.3 5.59h12.43v4.77h-18.22v-31.09h5.79zm25.48-17.63q2.45 0 4.46.79 2.01.8 3.44 2.26t2.2 3.57.77 4.71q0 2.62-.77 4.73-.77 2.1-2.2 3.59-1.43 1.48-3.44 2.28-2.01.79-4.46.79-2.48 0-4.5-.79-2.02-.8-3.45-2.28-1.43-1.49-2.21-3.59-.79-2.11-.79-4.73 0-2.6.79-4.71.78-2.11 2.21-3.57t3.45-2.26q2.02-.79 4.5-.79m0 18.64q2.75 0 4.07-1.85t1.32-5.42-1.32-5.44-4.07-1.87q-2.8 0-4.14 1.88-1.35 1.88-1.35 5.43t1.35 5.41q1.34 1.86 4.14 1.86m26.59-1.94v-3.72q-2.3.11-3.87.4t-2.51.74q-.95.45-1.36 1.06-.41.6-.41 1.31 0 1.39.83 2 .83.6 2.16.6 1.64 0 2.83-.59t2.33-1.8m-11.22-11.59-.95-1.69q3.81-3.49 9.16-3.49 1.94 0 3.46.64 1.53.63 2.58 1.76 1.06 1.13 1.6 2.7.55 1.57.55 3.44v13.93h-2.41q-.75 0-1.16-.23-.4-.22-.64-.91l-.47-1.59q-.84.75-1.64 1.32-.79.57-1.65.96t-1.84.59-2.16.2q-1.4 0-2.58-.37-1.19-.38-2.05-1.13t-1.33-1.87-.47-2.6q0-.84.28-1.67t.91-1.58q.64-.75 1.65-1.42t2.48-1.16 3.43-.81q1.96-.31 4.47-.37v-1.29q0-2.22-.94-3.28-.95-1.07-2.74-1.07-1.29 0-2.13.31-.85.3-1.5.67-.64.38-1.17.68t-1.17.3q-.56 0-.95-.29t-.62-.68m35.24 10.75v-9.89q-.91-1.09-1.97-1.54-1.06-.46-2.29-.46-1.2 0-2.17.46-.97.45-1.66 1.36t-1.05 2.32q-.37 1.41-.37 3.32 0 1.94.32 3.28.31 1.35.89 2.2t1.42 1.22q.84.38 1.87.38 1.65 0 2.81-.69t2.2-1.96m0-25.41h5.31v31.95h-3.25q-1.05 0-1.33-.97l-.45-2.13q-1.34 1.53-3.07 2.48-1.73.94-4.03.94-1.8 0-3.31-.75-1.5-.75-2.59-2.18t-1.68-3.54-.59-4.82q0-2.45.67-4.55.66-2.11 1.91-3.66t2.99-2.42 3.91-.87q1.85 0 3.16.58t2.35 1.57zm10.73 9.89h5.33v22.06h-5.33zm6.06-6.43q0 .69-.28 1.29t-.74 1.06q-.47.45-1.09.72-.62.26-1.33.26-.69 0-1.3-.26-.62-.27-1.07-.72-.45-.46-.72-1.06t-.27-1.29q0-.71.27-1.33t.72-1.08q.45-.45 1.07-.72.61-.26 1.3-.26.71 0 1.33.26.62.27 1.09.72.46.46.74 1.08t.28 1.33m9.29 7.4.36 1.74q.67-.67 1.41-1.24t1.57-.96q.83-.4 1.77-.63.95-.22 2.07-.22 1.8 0 3.2.61t2.33 1.72q.94 1.11 1.42 2.64.49 1.54.49 3.39v14.04h-5.31v-14.04q0-2.02-.93-3.13-.92-1.11-2.82-1.11-1.37 0-2.58.63-1.2.62-2.27 1.7v15.95h-5.31v-22.06h3.24q1.03 0 1.36.97m27.71 9.52q.99 0 1.72-.27.73-.26 1.21-.74.49-.47.74-1.14.24-.66.24-1.46 0-1.63-.98-2.59-.97-.96-2.93-.96t-2.94.96q-.97.96-.97 2.59 0 .77.24 1.44.25.67.73 1.15.49.49 1.23.75.74.27 1.71.27m6 12.56q0-.65-.39-1.05-.39-.41-1.05-.64-.67-.22-1.56-.33t-1.89-.16q-1-.06-2.07-.1-1.06-.04-2.07-.17-.88.49-1.43 1.16t-.55 1.55q0 .58.29 1.08.29.51.92.87.64.37 1.65.57 1.01.21 2.47.21 1.49 0 2.56-.23 1.08-.22 1.77-.62.7-.4 1.03-.95.32-.55.32-1.19m-1.06-22.3h6.35v1.98q0 .95-1.14 1.16l-1.98.37q.45 1.14.45 2.49 0 1.64-.65 2.96-.66 1.32-1.82 2.24-1.16.93-2.74 1.43-1.58.51-3.41.51-.65 0-1.25-.06-.6-.07-1.18-.18-1.03.63-1.03 1.4 0 .67.61.98t1.62.44 2.3.16 2.65.14q1.35.11 2.64.38t2.3.85 1.63 1.58q.61 1 .61 2.57 0 1.46-.72 2.83-.72 1.38-2.09 2.46-1.36 1.07-3.35 1.73-1.99.65-4.53.65-2.49 0-4.34-.48-1.85-.49-3.07-1.29-1.23-.81-1.83-1.86-.6-1.06-.6-2.19 0-1.55.93-2.6.94-1.04 2.57-1.66-.88-.45-1.4-1.21-.51-.75-.51-1.97 0-.5.18-1.03.18-.52.54-1.04.35-.51.89-.98.54-.46 1.27-.82-1.68-.91-2.63-2.41-.96-1.51-.96-3.53 0-1.63.65-2.95.66-1.33 1.83-2.26 1.17-.94 2.78-1.43 1.6-.5 3.49-.5 1.42 0 2.67.29 1.24.29 2.27.85"/></svg>